<svg width="219" height="60" viewBox="0 0 219 60" fill="none" xmlns="http://www.w3.org/2000/svg">
<path d="M21.7936 42.9118C10.1224 42.9118 1.65941 34.1723 1.65941 22.7776C1.65941 11.383 10.1224 2.64341 21.7936 2.64341C28.8185 2.64341 35.0136 6.12818 38.3878 11.6042L30.7545 16.0293C29.0397 13.0424 25.7209 11.2724 21.7936 11.2724C14.9347 11.2724 10.5096 15.8634 10.5096 22.7776C10.5096 29.6918 14.9347 34.2829 21.7936 34.2829C25.7209 34.2829 29.0951 32.5129 30.7545 29.5259L38.3878 33.951C35.0689 39.4271 28.8738 42.9118 21.7936 42.9118ZM55.8043 42.9118C47.6731 42.9118 41.1461 36.5508 41.1461 28.309C41.1461 20.0673 47.6731 13.7062 55.8043 13.7062C63.9354 13.7062 70.4624 20.0673 70.4624 28.309C70.4624 36.5508 63.9354 42.9118 55.8043 42.9118ZM55.8043 34.836C59.3997 34.836 62.1653 32.2363 62.1653 28.309C62.1653 24.3817 59.3997 21.782 55.8043 21.782C52.2089 21.782 49.4432 24.3817 49.4432 28.309C49.4432 32.2363 52.2089 34.836 55.8043 34.836ZM91.3624 13.7062C96.9491 13.7062 101.706 17.6888 101.706 25.1561V42.1375H93.409V26.373C93.409 22.9436 91.2518 21.3395 88.5967 21.3395C85.5544 21.3395 83.4525 23.1095 83.4525 27.0368V42.1375H75.1554V14.4806H83.4525V17.0803C84.946 15.0337 87.7117 13.7062 91.3624 13.7062ZM123.611 13.7062C129.197 13.7062 133.954 17.6888 133.954 25.1561V42.1375H125.657V26.373C125.657 22.9436 123.5 21.3395 120.845 21.3395C117.803 21.3395 115.701 23.1095 115.701 27.0368V42.1375H107.404V14.4806H115.701V17.0803C117.194 15.0337 119.96 13.7062 123.611 13.7062ZM147.064 31.6278C148.115 34.5041 150.66 35.4998 153.702 35.4998C155.97 35.4998 157.906 34.6148 159.012 33.3979L165.65 37.2145C162.939 40.9759 158.846 42.9118 153.591 42.9118C144.133 42.9118 138.269 36.5508 138.269 28.309C138.269 20.0673 144.243 13.7062 152.983 13.7062C161.059 13.7062 167.033 19.9566 167.033 28.309C167.033 29.4706 166.922 30.5769 166.701 31.6278H147.064ZM146.898 25.4327H158.791C157.906 22.2245 155.417 21.0629 152.927 21.0629C149.775 21.0629 147.673 22.6117 146.898 25.4327ZM184.744 42.9118C176.336 42.9118 170.086 36.5508 170.086 28.309C170.086 20.0673 176.336 13.7062 184.744 13.7062C190.109 13.7062 194.866 16.5272 197.245 20.7863L189.999 24.9902C189.058 23.0542 187.067 21.8926 184.633 21.8926C181.038 21.8926 178.383 24.4924 178.383 28.309C178.383 32.1257 181.038 34.7254 184.633 34.7254C187.067 34.7254 189.114 33.5638 189.999 31.6278L197.245 35.7764C194.866 40.0908 190.164 42.9118 184.744 42.9118ZM216.791 22.4457H211.093V32.2363C211.093 34.6148 213.14 34.836 216.791 34.6148V42.1375C205.949 43.2437 202.796 39.9802 202.796 32.2363V22.4457H198.371V14.4806H202.796V9.22575L211.093 6.73663V14.4806H216.791V22.4457Z" fill="white"/>
<path d="M88.868 57.176C88.5109 57.176 88.1869 57.1088 87.8958 56.9742C87.6048 56.8373 87.3737 56.6404 87.2025 56.3836C87.0313 56.1244 86.9457 55.8114 86.9457 55.4445C86.9457 55.1217 87.0093 54.86 87.1365 54.6595C87.2637 54.4565 87.4336 54.2976 87.6464 54.1826C87.8591 54.0677 88.0939 53.9821 88.3507 53.9258C88.6099 53.8671 88.8704 53.8207 89.1321 53.7864C89.4745 53.7424 89.752 53.7094 89.9648 53.6874C90.18 53.6629 90.3365 53.6226 90.4343 53.5663C90.5346 53.5101 90.5847 53.4123 90.5847 53.2729V53.2435C90.5847 52.8816 90.4857 52.6003 90.2876 52.3998C90.092 52.1993 89.7948 52.099 89.3962 52.099C88.9829 52.099 88.6589 52.1895 88.4241 52.3704C88.1893 52.5514 88.0242 52.7446 87.9288 52.95L87.1071 52.6566C87.2539 52.3142 87.4495 52.0476 87.6941 51.8569C87.9411 51.6637 88.2101 51.5292 88.5011 51.4534C88.7946 51.3751 89.0832 51.336 89.3668 51.336C89.5478 51.336 89.7557 51.358 89.9905 51.402C90.2277 51.4436 90.4564 51.5304 90.6765 51.6624C90.899 51.7945 91.0836 51.9938 91.2304 52.2604C91.3771 52.527 91.4505 52.884 91.4505 53.3316V57.0439H90.5847V56.2809H90.5407C90.482 56.4032 90.3842 56.534 90.2473 56.6734C90.1103 56.8128 89.9281 56.9314 89.7007 57.0293C89.4732 57.1271 89.1957 57.176 88.868 57.176ZM89 56.3983C89.3424 56.3983 89.631 56.3311 89.8657 56.1966C90.103 56.062 90.2815 55.8884 90.4013 55.6756C90.5236 55.4629 90.5847 55.2391 90.5847 55.0043V54.212C90.5481 54.256 90.4674 54.2963 90.3426 54.333C90.2204 54.3673 90.0785 54.3978 89.9171 54.4247C89.7581 54.4492 89.6028 54.4712 89.4512 54.4908C89.302 54.5079 89.181 54.5226 89.0881 54.5348C88.8631 54.5641 88.6527 54.6118 88.4571 54.6778C88.2639 54.7414 88.1074 54.838 87.9875 54.9676C87.8702 55.0948 87.8115 55.2685 87.8115 55.4886C87.8115 55.7894 87.9227 56.0168 88.1453 56.1709C88.3703 56.3225 88.6552 56.3983 89 56.3983ZM93.8964 53.6544V57.0439H93.0306V51.4093H93.867V52.2897H93.9404C94.0724 52.0036 94.273 51.7737 94.542 51.6001C94.811 51.424 95.1583 51.336 95.5838 51.336C95.9653 51.336 96.2991 51.4142 96.5853 51.5707C96.8714 51.7248 97.094 51.9596 97.2529 52.2751C97.4119 52.5881 97.4914 52.9843 97.4914 53.4636V57.0439H96.6256V53.5223C96.6256 53.0797 96.5107 52.7348 96.2808 52.4878C96.0509 52.2384 95.7354 52.1137 95.3344 52.1137C95.058 52.1137 94.811 52.1736 94.5934 52.2934C94.3781 52.4132 94.2082 52.5881 94.0835 52.818C93.9587 53.0479 93.8964 53.3267 93.8964 53.6544ZM103.006 49.5311V57.0439H102.096V49.5311H103.006ZM104.83 57.0439V49.5311H109.364V50.3382H105.74V52.8767H109.129V53.6837H105.74V56.2369H109.423V57.0439H104.83ZM111.004 57.0439V49.5311H115.538V50.3382H111.914V52.8767H115.303V53.6837H111.914V56.2369H115.597V57.0439H111.004ZM117.178 57.0439V49.5311H121.712V50.3382H118.087V52.8767H121.477V53.6837H118.087V56.2369H121.77V57.0439H117.178ZM126.257 57.0439V49.5311H130.762V50.3382H127.167V52.8767H130.424V53.6837H127.167V57.0439H126.257ZM133.23 49.5311V57.0439H132.32V49.5311H133.23ZM139.162 51.4093C139.118 51.0376 138.94 50.749 138.627 50.5436C138.314 50.3382 137.93 50.2355 137.475 50.2355C137.142 50.2355 136.851 50.2893 136.602 50.3969C136.355 50.5045 136.161 50.6524 136.022 50.8407C135.885 51.029 135.817 51.243 135.817 51.4827C135.817 51.6832 135.864 51.8557 135.96 51.9999C136.058 52.1418 136.182 52.2604 136.334 52.3558C136.486 52.4487 136.644 52.5257 136.811 52.5869C136.977 52.6456 137.13 52.6933 137.269 52.7299L138.032 52.9354C138.228 52.9867 138.446 53.0577 138.685 53.1481C138.927 53.2386 139.159 53.3621 139.379 53.5186C139.601 53.6727 139.785 53.8708 139.929 54.1129C140.073 54.355 140.145 54.6522 140.145 55.0043C140.145 55.4103 140.039 55.7771 139.826 56.1048C139.616 56.4326 139.308 56.693 138.902 56.8862C138.498 57.0794 138.008 57.176 137.431 57.176C136.893 57.176 136.427 57.0892 136.033 56.9156C135.642 56.7419 135.334 56.4998 135.109 56.1892C134.886 55.8786 134.76 55.5179 134.731 55.107H135.67C135.694 55.3907 135.79 55.6255 135.956 55.8114C136.125 55.9948 136.338 56.1317 136.594 56.2222C136.854 56.3103 137.132 56.3543 137.431 56.3543C137.778 56.3543 138.09 56.298 138.366 56.1855C138.643 56.0706 138.861 55.9116 139.023 55.7087C139.184 55.5032 139.265 55.2636 139.265 54.9897C139.265 54.7402 139.195 54.5372 139.056 54.3807C138.916 54.2242 138.733 54.097 138.506 53.9992C138.278 53.9014 138.032 53.8158 137.768 53.7424L136.844 53.4783C136.257 53.3095 135.792 53.0687 135.45 52.7556C135.107 52.4426 134.936 52.033 134.936 51.5267C134.936 51.1061 135.05 50.7392 135.277 50.4262C135.507 50.1107 135.815 49.8662 136.202 49.6925C136.591 49.5165 137.025 49.4284 137.504 49.4284C137.988 49.4284 138.419 49.5152 138.795 49.6889C139.172 49.8601 139.47 50.0948 139.69 50.3932C139.913 50.6916 140.03 51.0303 140.043 51.4093H139.162ZM141.949 57.0439H140.995L143.754 49.5311H144.693L147.452 57.0439H146.498L144.253 50.7197H144.194L141.949 57.0439ZM142.301 54.1093H146.146V54.9163H142.301V54.1093ZM147.333 50.3382V49.5311H152.968V50.3382H150.606V57.0439H149.696V50.3382H147.333ZM161.386 51.4093C161.342 51.0376 161.164 50.749 160.85 50.5436C160.537 50.3382 160.154 50.2355 159.699 50.2355C159.366 50.2355 159.075 50.2893 158.826 50.3969C158.579 50.5045 158.385 50.6524 158.246 50.8407C158.109 51.029 158.041 51.243 158.041 51.4827C158.041 51.6832 158.088 51.8557 158.184 51.9999C158.281 52.1418 158.406 52.2604 158.558 52.3558C158.709 52.4487 158.868 52.5257 159.035 52.5869C159.201 52.6456 159.354 52.6933 159.493 52.7299L160.256 52.9354C160.452 52.9867 160.67 53.0577 160.909 53.1481C161.151 53.2386 161.382 53.3621 161.603 53.5186C161.825 53.6727 162.008 53.8708 162.153 54.1129C162.297 54.355 162.369 54.6522 162.369 55.0043C162.369 55.4103 162.263 55.7771 162.05 56.1048C161.84 56.4326 161.532 56.693 161.126 56.8862C160.722 57.0794 160.232 57.176 159.655 57.176C159.117 57.176 158.651 57.0892 158.257 56.9156C157.866 56.7419 157.558 56.4998 157.333 56.1892C157.11 55.8786 156.984 55.5179 156.955 55.107H157.894C157.918 55.3907 158.014 55.6255 158.18 55.8114C158.349 55.9948 158.561 56.1317 158.818 56.2222C159.077 56.3103 159.356 56.3543 159.655 56.3543C160.002 56.3543 160.314 56.298 160.59 56.1855C160.866 56.0706 161.085 55.9116 161.247 55.7087C161.408 55.5032 161.489 55.2636 161.489 54.9897C161.489 54.7402 161.419 54.5372 161.28 54.3807C161.14 54.2242 160.957 54.097 160.729 53.9992C160.502 53.9014 160.256 53.8158 159.992 53.7424L159.068 53.4783C158.481 53.3095 158.016 53.0687 157.674 52.7556C157.331 52.4426 157.16 52.033 157.16 51.5267C157.16 51.1061 157.274 50.7392 157.501 50.4262C157.731 50.1107 158.039 49.8662 158.426 49.6925C158.815 49.5165 159.249 49.4284 159.728 49.4284C160.212 49.4284 160.643 49.5152 161.019 49.6889C161.396 49.8601 161.694 50.0948 161.914 50.3932C162.137 50.6916 162.254 51.0303 162.266 51.4093H161.386ZM163.865 57.0439V49.5311H166.492C167.015 49.5311 167.447 49.6216 167.786 49.8026C168.126 49.9811 168.38 50.222 168.546 50.5253C168.712 50.8261 168.795 51.1599 168.795 51.5267C168.795 51.8495 168.738 52.1161 168.623 52.3264C168.51 52.5367 168.361 52.703 168.175 52.8253C167.992 52.9476 167.793 53.0381 167.577 53.0968V53.1701C167.807 53.1848 168.038 53.2655 168.271 53.4123C168.503 53.559 168.697 53.7693 168.854 54.0432C169.01 54.3171 169.089 54.6522 169.089 55.0484C169.089 55.425 169.003 55.7637 168.832 56.0645C168.661 56.3653 168.391 56.6037 168.021 56.7798C167.652 56.9559 167.171 57.0439 166.58 57.0439H163.865ZM164.775 56.2369H166.58C167.174 56.2369 167.596 56.122 167.845 55.8921C168.097 55.6597 168.223 55.3785 168.223 55.0484C168.223 54.794 168.158 54.5592 168.029 54.344C167.899 54.1264 167.714 53.9527 167.475 53.8231C167.235 53.6911 166.951 53.625 166.624 53.625H164.775V56.2369ZM164.775 52.8327H166.462C166.736 52.8327 166.983 52.7789 167.203 52.6713C167.426 52.5636 167.602 52.412 167.731 52.2164C167.863 52.0207 167.93 51.7908 167.93 51.5267C167.93 51.1966 167.815 50.9165 167.585 50.6867C167.355 50.4543 166.99 50.3382 166.492 50.3382H164.775V52.8327ZM174.399 49.5311V57.0439H173.489V49.5311H174.399ZM176.971 53.6544V57.0439H176.105V51.4093H176.942V52.2897H177.015C177.147 52.0036 177.348 51.7737 177.617 51.6001C177.886 51.424 178.233 51.336 178.659 51.336C179.04 51.336 179.374 51.4142 179.66 51.5707C179.946 51.7248 180.169 51.9596 180.328 52.2751C180.487 52.5881 180.566 52.9843 180.566 53.4636V57.0439H179.7V53.5223C179.7 53.0797 179.585 52.7348 179.356 52.4878C179.126 52.2384 178.81 52.1137 178.409 52.1137C178.133 52.1137 177.886 52.1736 177.668 52.2934C177.453 52.4132 177.283 52.5881 177.158 52.818C177.034 53.0479 176.971 53.3267 176.971 53.6544ZM182.148 57.0439V51.4093H183.014V57.0439H182.148ZM182.588 50.4702C182.42 50.4702 182.274 50.4128 182.152 50.2978C182.032 50.1829 181.972 50.0447 181.972 49.8833C181.972 49.7219 182.032 49.5837 182.152 49.4688C182.274 49.3538 182.42 49.2964 182.588 49.2964C182.757 49.2964 182.901 49.3538 183.021 49.4688C183.143 49.5837 183.205 49.7219 183.205 49.8833C183.205 50.0447 183.143 50.1829 183.021 50.2978C182.901 50.4128 182.757 50.4702 182.588 50.4702ZM187.05 51.4093V52.143H184.13V51.4093H187.05ZM184.981 50.0594H185.847V55.4299C185.847 55.6744 185.882 55.8578 185.953 55.9801C186.027 56.1 186.119 56.1807 186.232 56.2222C186.347 56.2614 186.468 56.2809 186.595 56.2809C186.69 56.2809 186.769 56.276 186.83 56.2663C186.891 56.254 186.94 56.2442 186.977 56.2369L187.153 57.0146C187.094 57.0366 187.012 57.0586 186.907 57.0806C186.802 57.1051 186.668 57.1173 186.507 57.1173C186.263 57.1173 186.023 57.0647 185.788 56.9596C185.556 56.8544 185.363 56.6942 185.208 56.479C185.057 56.2638 184.981 55.9923 184.981 55.6646V50.0594ZM188.352 57.0439V51.4093H189.218V57.0439H188.352ZM188.792 50.4702C188.624 50.4702 188.478 50.4128 188.356 50.2978C188.236 50.1829 188.176 50.0447 188.176 49.8833C188.176 49.7219 188.236 49.5837 188.356 49.4688C188.478 49.3538 188.624 49.2964 188.792 49.2964C188.961 49.2964 189.105 49.3538 189.225 49.4688C189.348 49.5837 189.409 49.7219 189.409 49.8833C189.409 50.0447 189.348 50.1829 189.225 50.2978C189.105 50.4128 188.961 50.4702 188.792 50.4702ZM193.254 51.4093V52.143H190.334V51.4093H193.254ZM191.185 50.0594H192.051V55.4299C192.051 55.6744 192.086 55.8578 192.157 55.9801C192.231 56.1 192.324 56.1807 192.436 56.2222C192.551 56.2614 192.672 56.2809 192.799 56.2809C192.895 56.2809 192.973 56.276 193.034 56.2663C193.095 56.254 193.144 56.2442 193.181 56.2369L193.357 57.0146C193.298 57.0366 193.216 57.0586 193.111 57.0806C193.006 57.1051 192.873 57.1173 192.711 57.1173C192.467 57.1173 192.227 57.0647 191.992 56.9596C191.76 56.8544 191.567 56.6942 191.413 56.479C191.261 56.2638 191.185 55.9923 191.185 55.6646V50.0594ZM196.214 57.176C195.857 57.176 195.533 57.1088 195.242 56.9742C194.951 56.8373 194.72 56.6404 194.549 56.3836C194.378 56.1244 194.292 55.8114 194.292 55.4445C194.292 55.1217 194.356 54.86 194.483 54.6595C194.61 54.4565 194.78 54.2976 194.993 54.1826C195.206 54.0677 195.44 53.9821 195.697 53.9258C195.956 53.8671 196.217 53.8207 196.479 53.7864C196.821 53.7424 197.099 53.7094 197.311 53.6874C197.527 53.6629 197.683 53.6226 197.781 53.5663C197.881 53.5101 197.931 53.4123 197.931 53.2729V53.2435C197.931 52.8816 197.832 52.6003 197.634 52.3998C197.438 52.1993 197.141 52.099 196.743 52.099C196.329 52.099 196.005 52.1895 195.771 52.3704C195.536 52.5514 195.371 52.7446 195.275 52.95L194.454 52.6566C194.6 52.3142 194.796 52.0476 195.041 51.8569C195.288 51.6637 195.557 51.5292 195.848 51.4534C196.141 51.3751 196.43 51.336 196.713 51.336C196.894 51.336 197.102 51.358 197.337 51.402C197.574 51.4436 197.803 51.5304 198.023 51.6624C198.246 51.7945 198.43 51.9938 198.577 52.2604C198.724 52.527 198.797 52.884 198.797 53.3316V57.0439H197.931V56.2809H197.887C197.829 56.4032 197.731 56.534 197.594 56.6734C197.457 56.8128 197.275 56.9314 197.047 57.0293C196.82 57.1271 196.542 57.176 196.214 57.176ZM196.347 56.3983C196.689 56.3983 196.978 56.3311 197.212 56.1966C197.45 56.062 197.628 55.8884 197.748 55.6756C197.87 55.4629 197.931 55.2391 197.931 55.0043V54.212C197.895 54.256 197.814 54.2963 197.689 54.333C197.567 54.3673 197.425 54.3978 197.264 54.4247C197.105 54.4492 196.949 54.4712 196.798 54.4908C196.649 54.5079 196.528 54.5226 196.435 54.5348C196.21 54.5641 195.999 54.6118 195.804 54.6778C195.61 54.7414 195.454 54.838 195.334 54.9676C195.217 55.0948 195.158 55.2685 195.158 55.4886C195.158 55.7894 195.269 56.0168 195.492 56.1709C195.717 56.3225 196.002 56.3983 196.347 56.3983ZM202.828 51.4093V52.143H199.908V51.4093H202.828ZM200.759 50.0594H201.624V55.4299C201.624 55.6744 201.66 55.8578 201.731 55.9801C201.804 56.1 201.897 56.1807 202.01 56.2222C202.125 56.2614 202.246 56.2809 202.373 56.2809C202.468 56.2809 202.546 56.276 202.608 56.2663C202.669 56.254 202.718 56.2442 202.754 56.2369L202.93 57.0146C202.872 57.0366 202.79 57.0586 202.685 57.0806C202.579 57.1051 202.446 57.1173 202.285 57.1173C202.04 57.1173 201.8 57.0647 201.566 56.9596C201.333 56.8544 201.14 56.6942 200.986 56.479C200.834 56.2638 200.759 55.9923 200.759 55.6646V50.0594ZM204.13 57.0439V51.4093H204.996V57.0439H204.13ZM204.57 50.4702C204.401 50.4702 204.256 50.4128 204.134 50.2978C204.014 50.1829 203.954 50.0447 203.954 49.8833C203.954 49.7219 204.014 49.5837 204.134 49.4688C204.256 49.3538 204.401 49.2964 204.57 49.2964C204.739 49.2964 204.883 49.3538 205.003 49.4688C205.125 49.5837 205.186 49.7219 205.186 49.8833C205.186 50.0447 205.125 50.1829 205.003 50.2978C204.883 50.4128 204.739 50.4702 204.57 50.4702ZM211.189 51.4093L209.105 57.0439H208.225L206.141 51.4093H207.08L208.636 55.8994H208.694L210.25 51.4093H211.189ZM214.492 57.1613C213.949 57.1613 213.481 57.0415 213.087 56.8018C212.696 56.5597 212.394 56.2222 212.181 55.7894C211.971 55.3541 211.866 54.8478 211.866 54.2707C211.866 53.6935 211.971 53.1848 212.181 52.7446C212.394 52.302 212.69 51.9571 213.069 51.7101C213.45 51.4607 213.895 51.336 214.404 51.336C214.698 51.336 214.987 51.3849 215.273 51.4827C215.56 51.5805 215.82 51.7395 216.055 51.9596C216.29 52.1772 216.477 52.4658 216.616 52.8253C216.756 53.1848 216.825 53.6275 216.825 54.1533V54.5201H212.482V53.7718H215.945C215.945 53.4538 215.881 53.1701 215.754 52.9207C215.629 52.6713 215.451 52.4744 215.218 52.3301C214.989 52.1858 214.717 52.1137 214.404 52.1137C214.059 52.1137 213.761 52.1993 213.509 52.3704C213.26 52.5392 213.068 52.7593 212.933 53.0308C212.799 53.3022 212.731 53.5932 212.731 53.9038V54.4027C212.731 54.8283 212.805 55.189 212.951 55.4849C213.101 55.7784 213.307 56.0021 213.571 56.1562C213.835 56.3078 214.142 56.3836 214.492 56.3836C214.72 56.3836 214.925 56.3518 215.108 56.2883C215.294 56.2222 215.454 56.1244 215.589 55.9948C215.723 55.8627 215.827 55.6989 215.901 55.5032L216.737 55.738C216.649 56.0217 216.501 56.2711 216.293 56.4864C216.085 56.6991 215.829 56.8654 215.523 56.9853C215.217 57.1026 214.874 57.1613 214.492 57.1613Z" fill="white"/>
<rect width="9.55914" height="9.55914" transform="translate(16.3461 18.2129)" fill="white"/>
</svg>
