<svg width="152" height="42" viewBox="0 0 152 42" fill="none" xmlns="http://www.w3.org/2000/svg">
<path d="M15.1262 29.9109C7.02561 29.9109 1.15174 23.8451 1.15174 15.9365C1.15174 8.02785 7.02561 1.96202 15.1262 1.96202C20.0019 1.96202 24.3017 4.38068 26.6436 8.18141L21.3456 11.2527C20.1554 9.17959 17.852 7.95107 15.1262 7.95107C10.3657 7.95107 7.29435 11.1375 7.29435 15.9365C7.29435 20.7354 10.3657 23.9218 15.1262 23.9218C17.852 23.9218 20.1938 22.6933 21.3456 20.6202L26.6436 23.6915C24.3401 27.4922 20.0403 29.9109 15.1262 29.9109ZM38.7317 29.9109C33.0882 29.9109 28.558 25.4959 28.558 19.7756C28.558 14.0553 33.0882 9.64028 38.7317 9.64028C44.3752 9.64028 48.9054 14.0553 48.9054 19.7756C48.9054 25.4959 44.3752 29.9109 38.7317 29.9109ZM38.7317 24.3058C41.2272 24.3058 43.1467 22.5014 43.1467 19.7756C43.1467 17.0498 41.2272 15.2454 38.7317 15.2454C36.2363 15.2454 34.3167 17.0498 34.3167 19.7756C34.3167 22.5014 36.2363 24.3058 38.7317 24.3058ZM63.4113 9.64028C67.2889 9.64028 70.5905 12.4045 70.5905 17.5873V29.3734H64.8318V18.4319C64.8318 16.0516 63.3345 14.9383 61.4918 14.9383C59.3802 14.9383 57.9214 16.1668 57.9214 18.8926V29.3734H52.1627V10.1778H57.9214V11.9822C58.9579 10.5617 60.8775 9.64028 63.4113 9.64028ZM85.7938 9.64028C89.6713 9.64028 92.9729 12.4045 92.9729 17.5873V29.3734H87.2142V18.4319C87.2142 16.0516 85.717 14.9383 83.8742 14.9383C81.7627 14.9383 80.3038 16.1668 80.3038 18.8926V29.3734H74.5451V10.1778H80.3038V11.9822C81.3404 10.5617 83.2599 9.64028 85.7938 9.64028ZM102.072 22.0791C102.801 24.0754 104.567 24.7665 106.679 24.7665C108.253 24.7665 109.597 24.1522 110.364 23.3076L114.971 25.9566C113.09 28.5672 110.249 29.9109 106.602 29.9109C100.037 29.9109 95.9677 25.4959 95.9677 19.7756C95.9677 14.0553 100.114 9.64028 106.18 9.64028C111.785 9.64028 115.931 13.9785 115.931 19.7756C115.931 20.5818 115.854 21.3496 115.701 22.0791H102.072ZM101.957 17.7792H110.211C109.597 15.5525 107.869 14.7463 106.141 14.7463C103.953 14.7463 102.494 15.8213 101.957 17.7792ZM128.224 29.9109C122.388 29.9109 118.05 25.4959 118.05 19.7756C118.05 14.0553 122.388 9.64028 128.224 9.64028C131.948 9.64028 135.25 11.5982 136.9 14.5544L131.871 17.4721C131.218 16.1284 129.836 15.3222 128.147 15.3222C125.652 15.3222 123.809 17.1266 123.809 19.7756C123.809 22.4246 125.652 24.229 128.147 24.229C129.836 24.229 131.257 23.4228 131.871 22.0791L136.9 24.9584C135.25 27.9529 131.986 29.9109 128.224 29.9109ZM150.467 15.7061H146.512V22.5014C146.512 24.1522 147.933 24.3058 150.467 24.1522V29.3734C142.942 30.1412 140.754 27.8762 140.754 22.5014V15.7061H137.682V10.1778H140.754V6.53059L146.512 4.80298V10.1778H150.467V15.7061Z" fill="#3E61DC"/>
<path d="M61.68 39.6559C61.4322 39.6559 61.2073 39.6092 61.0053 39.5158C60.8033 39.4208 60.6429 39.2841 60.5241 39.1059C60.4053 38.926 60.3459 38.7087 60.3459 38.4541C60.3459 38.2301 60.39 38.0484 60.4783 37.9093C60.5665 37.7684 60.6845 37.658 60.8322 37.5783C60.9799 37.4985 61.1428 37.4391 61.321 37.4C61.501 37.3593 61.6817 37.3271 61.8633 37.3033C62.101 37.2727 62.2936 37.2498 62.4413 37.2345C62.5907 37.2176 62.6993 37.1896 62.7672 37.1505C62.8368 37.1115 62.8716 37.0436 62.8716 36.9468V36.9265C62.8716 36.6753 62.8029 36.4801 62.6654 36.3409C62.5296 36.2017 62.3233 36.1321 62.0467 36.1321C61.7598 36.1321 61.5349 36.1949 61.372 36.3205C61.209 36.4461 61.0944 36.5802 61.0282 36.7228L60.4579 36.5191C60.5598 36.2815 60.6955 36.0964 60.8653 35.964C61.0367 35.83 61.2234 35.7366 61.4254 35.684C61.6291 35.6297 61.8294 35.6025 62.0263 35.6025C62.1519 35.6025 62.2962 35.6178 62.4591 35.6483C62.6238 35.6772 62.7825 35.7374 62.9352 35.8291C63.0897 35.9208 63.2179 36.0591 63.3197 36.2441C63.4216 36.4291 63.4725 36.677 63.4725 36.9876V39.5642H62.8716V39.0346H62.841C62.8003 39.1195 62.7324 39.2103 62.6374 39.3071C62.5423 39.4038 62.4158 39.4861 62.258 39.554C62.1001 39.6219 61.9075 39.6559 61.68 39.6559ZM61.7717 39.1161C62.0093 39.1161 62.2096 39.0694 62.3726 38.9761C62.5372 38.8827 62.6611 38.7622 62.7443 38.6145C62.8292 38.4668 62.8716 38.3115 62.8716 38.1486V37.5986C62.8461 37.6292 62.7901 37.6572 62.7036 37.6827C62.6187 37.7064 62.5202 37.7276 62.4082 37.7463C62.2979 37.7633 62.1901 37.7786 62.0849 37.7921C61.9813 37.804 61.8973 37.8142 61.8328 37.8227C61.6766 37.8431 61.5307 37.8762 61.3949 37.922C61.2608 37.9661 61.1521 38.0332 61.069 38.1231C60.9875 38.2114 60.9468 38.3319 60.9468 38.4847C60.9468 38.6934 61.024 38.8513 61.1785 38.9582C61.3346 39.0635 61.5324 39.1161 61.7717 39.1161ZM65.1701 37.2116V39.5642H64.5692V35.6534H65.1497V36.2645H65.2006C65.2923 36.0659 65.4315 35.9063 65.6182 35.7858C65.8049 35.6636 66.0459 35.6025 66.3413 35.6025C66.6061 35.6025 66.8378 35.6568 67.0364 35.7655C67.2349 35.8724 67.3894 36.0353 67.4997 36.2543C67.6101 36.4716 67.6652 36.7465 67.6652 37.0792V39.5642H67.0644V37.12C67.0644 36.8127 66.9846 36.5734 66.825 36.402C66.6655 36.2288 66.4465 36.1423 66.1681 36.1423C65.9763 36.1423 65.8049 36.1839 65.6538 36.267C65.5045 36.3502 65.3865 36.4716 65.2999 36.6311C65.2134 36.7907 65.1701 36.9842 65.1701 37.2116ZM71.4926 34.3498V39.5642H70.8612V34.3498H71.4926ZM72.7587 39.5642V34.3498H75.9056V34.91H73.3901V36.6719H75.7427V37.232H73.3901V39.0041H75.9464V39.5642H72.7587ZM77.0437 39.5642V34.3498H80.1907V34.91H77.6752V36.6719H80.0277V37.232H77.6752V39.0041H80.2314V39.5642H77.0437ZM81.3288 39.5642V34.3498H84.4757V34.91H81.9602V36.6719H84.3128V37.232H81.9602V39.0041H84.5165V39.5642H81.3288ZM87.6303 39.5642V34.3498H90.7569V34.91H88.2618V36.6719H90.5227V37.232H88.2618V39.5642H87.6303ZM92.4698 34.3498V39.5642H91.8384V34.3498H92.4698ZM96.5874 35.6534C96.5569 35.3954 96.433 35.1951 96.2157 35.0526C95.9985 34.91 95.732 34.8387 95.4163 34.8387C95.1854 34.8387 94.9834 34.876 94.8103 34.9507C94.6388 35.0254 94.5048 35.1281 94.408 35.2588C94.3129 35.3895 94.2654 35.538 94.2654 35.7043C94.2654 35.8435 94.2985 35.9632 94.3647 36.0633C94.4326 36.1618 94.5192 36.2441 94.6244 36.3103C94.7297 36.3748 94.84 36.4283 94.9554 36.4707C95.0708 36.5115 95.1769 36.5446 95.2737 36.57L95.8033 36.7126C95.939 36.7482 96.0901 36.7975 96.2565 36.8603C96.4245 36.9231 96.5849 37.0088 96.7377 37.1174C96.8921 37.2244 97.0194 37.3618 97.1196 37.5299C97.2197 37.6979 97.2698 37.9042 97.2698 38.1486C97.2698 38.4304 97.196 38.685 97.0483 38.9124C96.9023 39.1399 96.6884 39.3206 96.4067 39.4547C96.1266 39.5888 95.7863 39.6559 95.3857 39.6559C95.0123 39.6559 94.6889 39.5956 94.4156 39.4751C94.1441 39.3546 93.9302 39.1865 93.774 38.971C93.6196 38.7554 93.5321 38.505 93.5118 38.2199H94.1636C94.1806 38.4168 94.2468 38.5797 94.3622 38.7087C94.4793 38.836 94.627 38.9311 94.8052 38.9939C94.9851 39.055 95.1786 39.0855 95.3857 39.0855C95.6267 39.0855 95.8431 39.0465 96.0349 38.9684C96.2268 38.8886 96.3787 38.7783 96.4907 38.6374C96.6027 38.4949 96.6587 38.3285 96.6587 38.1384C96.6587 37.9653 96.6104 37.8244 96.5136 37.7158C96.4169 37.6071 96.2896 37.5189 96.1317 37.451C95.9738 37.3831 95.8033 37.3237 95.6199 37.2727L94.9783 37.0894C94.571 36.9723 94.2484 36.8051 94.0108 36.5878C93.7732 36.3706 93.6544 36.0863 93.6544 35.7349C93.6544 35.443 93.7333 35.1883 93.8911 34.9711C94.0507 34.7521 94.2646 34.5824 94.5328 34.4619C94.8026 34.3396 95.1039 34.2785 95.4366 34.2785C95.7727 34.2785 96.0714 34.3388 96.3328 34.4593C96.5942 34.5781 96.8013 34.7411 96.9541 34.9482C97.1085 35.1552 97.19 35.3903 97.1985 35.6534H96.5874ZM98.5218 39.5642H97.8599L99.7745 34.3498H100.426L102.341 39.5642H101.679L100.121 35.1748H100.08L98.5218 39.5642ZM98.7663 37.5273H101.435V38.0875H98.7663V37.5273ZM102.259 34.91V34.3498H106.17V34.91H104.53V39.5642H103.899V34.91H102.259ZM112.012 35.6534C111.982 35.3954 111.858 35.1951 111.641 35.0526C111.423 34.91 111.157 34.8387 110.841 34.8387C110.61 34.8387 110.408 34.876 110.235 34.9507C110.064 35.0254 109.93 35.1281 109.833 35.2588C109.738 35.3895 109.69 35.538 109.69 35.7043C109.69 35.8435 109.723 35.9632 109.79 36.0633C109.857 36.1618 109.944 36.2441 110.049 36.3103C110.154 36.3748 110.265 36.4283 110.38 36.4707C110.496 36.5115 110.602 36.5446 110.698 36.57L111.228 36.7126C111.364 36.7482 111.515 36.7975 111.681 36.8603C111.849 36.9231 112.01 37.0088 112.162 37.1174C112.317 37.2244 112.444 37.3618 112.544 37.5299C112.645 37.6979 112.695 37.9042 112.695 38.1486C112.695 38.4304 112.621 38.685 112.473 38.9124C112.327 39.1399 112.113 39.3206 111.831 39.4547C111.551 39.5888 111.211 39.6559 110.81 39.6559C110.437 39.6559 110.114 39.5956 109.84 39.4751C109.569 39.3546 109.355 39.1865 109.199 38.971C109.044 38.7554 108.957 38.505 108.937 38.2199H109.588C109.605 38.4168 109.672 38.5797 109.787 38.7087C109.904 38.836 110.052 38.9311 110.23 38.9939C110.41 39.055 110.603 39.0855 110.81 39.0855C111.052 39.0855 111.268 39.0465 111.46 38.9684C111.652 38.8886 111.803 38.7783 111.915 38.6374C112.028 38.4949 112.084 38.3285 112.084 38.1384C112.084 37.9653 112.035 37.8244 111.938 37.7158C111.842 37.6071 111.714 37.5189 111.556 37.451C111.399 37.3831 111.228 37.3237 111.045 37.2727L110.403 37.0894C109.996 36.9723 109.673 36.8051 109.436 36.5878C109.198 36.3706 109.079 36.0863 109.079 35.7349C109.079 35.443 109.158 35.1883 109.316 34.9711C109.475 34.7521 109.689 34.5824 109.958 34.4619C110.227 34.3396 110.529 34.2785 110.861 34.2785C111.197 34.2785 111.496 34.3388 111.758 34.4593C112.019 34.5781 112.226 34.7411 112.379 34.9482C112.533 35.1552 112.615 35.3903 112.623 35.6534H112.012ZM113.733 39.5642V34.3498H115.556C115.919 34.3498 116.219 34.4126 116.455 34.5382C116.69 34.6622 116.866 34.8293 116.982 35.0398C117.097 35.2486 117.155 35.4803 117.155 35.7349C117.155 35.959 117.115 36.144 117.035 36.2899C116.957 36.4359 116.853 36.5513 116.724 36.6362C116.597 36.7211 116.459 36.7839 116.309 36.8246V36.8755C116.469 36.8857 116.629 36.9417 116.791 37.0436C116.952 37.1454 117.087 37.2914 117.195 37.4815C117.304 37.6716 117.358 37.9042 117.358 38.1791C117.358 38.4405 117.299 38.6756 117.18 38.8844C117.061 39.0932 116.874 39.2587 116.617 39.3809C116.361 39.5031 116.028 39.5642 115.617 39.5642H113.733ZM114.364 39.0041H115.617C116.029 39.0041 116.322 38.9243 116.495 38.7647C116.67 38.6035 116.758 38.4083 116.758 38.1791C116.758 38.0026 116.713 37.8397 116.623 37.6903C116.533 37.5392 116.404 37.4187 116.238 37.3287C116.072 37.2371 115.875 37.1913 115.647 37.1913H114.364V39.0041ZM114.364 36.6413H115.535C115.725 36.6413 115.897 36.604 116.05 36.5293C116.204 36.4546 116.326 36.3494 116.416 36.2136C116.508 36.0778 116.554 35.9182 116.554 35.7349C116.554 35.5058 116.474 35.3114 116.314 35.1518C116.155 34.9906 115.902 34.91 115.556 34.91H114.364V36.6413ZM121.044 34.3498V39.5642H120.412V34.3498H121.044ZM122.829 37.2116V39.5642H122.228V35.6534H122.809V36.2645H122.86C122.951 36.0659 123.091 35.9063 123.277 35.7858C123.464 35.6636 123.705 35.6025 124 35.6025C124.265 35.6025 124.497 35.6568 124.696 35.7655C124.894 35.8724 125.049 36.0353 125.159 36.2543C125.269 36.4716 125.324 36.7465 125.324 37.0792V39.5642H124.724V37.12C124.724 36.8127 124.644 36.5734 124.484 36.402C124.325 36.2288 124.106 36.1423 123.827 36.1423C123.636 36.1423 123.464 36.1839 123.313 36.267C123.164 36.3502 123.046 36.4716 122.959 36.6311C122.873 36.7907 122.829 36.9842 122.829 37.2116ZM126.422 39.5642V35.6534H127.023V39.5642H126.422ZM126.728 35.0016C126.611 35.0016 126.51 34.9617 126.425 34.882C126.342 34.8022 126.3 34.7063 126.3 34.5943C126.3 34.4822 126.342 34.3863 126.425 34.3066C126.51 34.2268 126.611 34.1869 126.728 34.1869C126.845 34.1869 126.945 34.2268 127.028 34.3066C127.113 34.3863 127.156 34.4822 127.156 34.5943C127.156 34.7063 127.113 34.8022 127.028 34.882C126.945 34.9617 126.845 35.0016 126.728 35.0016ZM129.825 35.6534V36.1626H127.798V35.6534H129.825ZM128.389 34.7165H128.99V38.4439C128.99 38.6137 129.014 38.741 129.063 38.8258C129.114 38.909 129.179 38.965 129.257 38.9939C129.337 39.021 129.421 39.0346 129.509 39.0346C129.575 39.0346 129.629 39.0312 129.672 39.0244C129.714 39.016 129.748 39.0092 129.774 39.0041L129.896 39.5438C129.855 39.5591 129.798 39.5744 129.725 39.5897C129.652 39.6066 129.56 39.6151 129.448 39.6151C129.278 39.6151 129.112 39.5786 128.949 39.5056C128.788 39.4327 128.653 39.3215 128.547 39.1721C128.441 39.0227 128.389 38.8343 128.389 38.6069V34.7165ZM130.728 39.5642V35.6534H131.329V39.5642H130.728ZM131.034 35.0016C130.917 35.0016 130.816 34.9617 130.731 34.882C130.648 34.8022 130.606 34.7063 130.606 34.5943C130.606 34.4822 130.648 34.3863 130.731 34.3066C130.816 34.2268 130.917 34.1869 131.034 34.1869C131.151 34.1869 131.251 34.2268 131.334 34.3066C131.419 34.3863 131.462 34.4822 131.462 34.5943C131.462 34.7063 131.419 34.8022 131.334 34.882C131.251 34.9617 131.151 35.0016 131.034 35.0016ZM134.131 35.6534V36.1626H132.104V35.6534H134.131ZM132.695 34.7165H133.296V38.4439C133.296 38.6137 133.32 38.741 133.369 38.8258C133.42 38.909 133.485 38.965 133.563 38.9939C133.643 39.021 133.727 39.0346 133.815 39.0346C133.881 39.0346 133.935 39.0312 133.978 39.0244C134.02 39.016 134.054 39.0092 134.08 39.0041L134.202 39.5438C134.161 39.5591 134.104 39.5744 134.031 39.5897C133.958 39.6066 133.866 39.6151 133.754 39.6151C133.584 39.6151 133.418 39.5786 133.255 39.5056C133.094 39.4327 132.959 39.3215 132.853 39.1721C132.747 39.0227 132.695 38.8343 132.695 38.6069V34.7165ZM136.185 39.6559C135.938 39.6559 135.713 39.6092 135.511 39.5158C135.309 39.4208 135.148 39.2841 135.029 39.1059C134.911 38.926 134.851 38.7087 134.851 38.4541C134.851 38.2301 134.895 38.0484 134.984 37.9093C135.072 37.7684 135.19 37.658 135.338 37.5783C135.485 37.4985 135.648 37.4391 135.826 37.4C136.006 37.3593 136.187 37.3271 136.369 37.3033C136.606 37.2727 136.799 37.2498 136.947 37.2345C137.096 37.2176 137.205 37.1896 137.273 37.1505C137.342 37.1115 137.377 37.0436 137.377 36.9468V36.9265C137.377 36.6753 137.308 36.4801 137.171 36.3409C137.035 36.2017 136.829 36.1321 136.552 36.1321C136.265 36.1321 136.04 36.1949 135.877 36.3205C135.714 36.4461 135.6 36.5802 135.534 36.7228L134.963 36.5191C135.065 36.2815 135.201 36.0964 135.371 35.964C135.542 35.83 135.729 35.7366 135.931 35.684C136.134 35.6297 136.335 35.6025 136.532 35.6025C136.657 35.6025 136.802 35.6178 136.964 35.6483C137.129 35.6772 137.288 35.7374 137.441 35.8291C137.595 35.9208 137.723 36.0591 137.825 36.2441C137.927 36.4291 137.978 36.677 137.978 36.9876V39.5642H137.377V39.0346H137.346C137.306 39.1195 137.238 39.2103 137.143 39.3071C137.048 39.4038 136.921 39.4861 136.763 39.554C136.605 39.6219 136.413 39.6559 136.185 39.6559ZM136.277 39.1161C136.515 39.1161 136.715 39.0694 136.878 38.9761C137.043 38.8827 137.166 38.7622 137.25 38.6145C137.335 38.4668 137.377 38.3115 137.377 38.1486V37.5986C137.351 37.6292 137.295 37.6572 137.209 37.6827C137.124 37.7064 137.026 37.7276 136.914 37.7463C136.803 37.7633 136.695 37.7786 136.59 37.7921C136.487 37.804 136.403 37.8142 136.338 37.8227C136.182 37.8431 136.036 37.8762 135.9 37.922C135.766 37.9661 135.657 38.0332 135.574 38.1231C135.493 38.2114 135.452 38.3319 135.452 38.4847C135.452 38.6934 135.529 38.8513 135.684 38.9582C135.84 39.0635 136.038 39.1161 136.277 39.1161ZM140.775 35.6534V36.1626H138.749V35.6534H140.775ZM139.339 34.7165H139.94V38.4439C139.94 38.6137 139.965 38.741 140.014 38.8258C140.065 38.909 140.129 38.965 140.208 38.9939C140.287 39.021 140.371 39.0346 140.46 39.0346C140.526 39.0346 140.58 39.0312 140.623 39.0244C140.665 39.016 140.699 39.0092 140.724 39.0041L140.847 39.5438C140.806 39.5591 140.749 39.5744 140.676 39.5897C140.603 39.6066 140.511 39.6151 140.399 39.6151C140.229 39.6151 140.062 39.5786 139.899 39.5056C139.738 39.4327 139.604 39.3215 139.497 39.1721C139.392 39.0227 139.339 38.8343 139.339 38.6069V34.7165ZM141.679 39.5642V35.6534H142.28V39.5642H141.679ZM141.985 35.0016C141.868 35.0016 141.767 34.9617 141.682 34.882C141.599 34.8022 141.557 34.7063 141.557 34.5943C141.557 34.4822 141.599 34.3863 141.682 34.3066C141.767 34.2268 141.868 34.1869 141.985 34.1869C142.102 34.1869 142.202 34.2268 142.285 34.3066C142.37 34.3863 142.412 34.4822 142.412 34.5943C142.412 34.7063 142.37 34.8022 142.285 34.882C142.202 34.9617 142.102 35.0016 141.985 35.0016ZM146.578 35.6534L145.132 39.5642H144.521L143.075 35.6534H143.727L144.806 38.7698H144.847L145.927 35.6534H146.578ZM148.871 39.6457C148.494 39.6457 148.169 39.5625 147.896 39.3962C147.625 39.2281 147.415 38.9939 147.267 38.6934C147.121 38.3913 147.048 38.04 147.048 37.6394C147.048 37.2388 147.121 36.8857 147.267 36.5802C147.415 36.273 147.62 36.0336 147.883 35.8622C148.148 35.6891 148.457 35.6025 148.81 35.6025C149.014 35.6025 149.215 35.6365 149.414 35.7043C149.612 35.7722 149.793 35.8826 149.956 36.0353C150.119 36.1864 150.249 36.3867 150.345 36.6362C150.442 36.8857 150.491 37.193 150.491 37.5579V37.8125H147.476V37.2931H149.879C149.879 37.0724 149.835 36.8755 149.747 36.7024C149.661 36.5293 149.537 36.3926 149.375 36.2925C149.216 36.1923 149.027 36.1423 148.81 36.1423C148.571 36.1423 148.364 36.2017 148.189 36.3205C148.016 36.4376 147.883 36.5904 147.789 36.7788C147.696 36.9672 147.649 37.1692 147.649 37.3848V37.731C147.649 38.0264 147.7 38.2767 147.802 38.4821C147.905 38.6858 148.049 38.8411 148.232 38.9481C148.415 39.0533 148.629 39.1059 148.871 39.1059C149.029 39.1059 149.172 39.0838 149.299 39.0397C149.428 38.9939 149.539 38.926 149.633 38.836C149.726 38.7444 149.798 38.6306 149.849 38.4949L150.429 38.6578C150.368 38.8547 150.266 39.0278 150.121 39.1772C149.977 39.3249 149.799 39.4403 149.587 39.5235C149.375 39.6049 149.136 39.6457 148.871 39.6457Z" fill="#3E61DC"/>
<rect width="6.63466" height="6.63466" transform="translate(11.3452 12.5536)" fill="#3E61DC"/>
</svg>
