<svg version="1.2" xmlns="http://www.w3.org/2000/svg" viewBox="0 0 249 47" width="249" height="47"><defs><linearGradient id="P" gradientUnits="userSpaceOnUse"/><linearGradient id="g1" x2="1" href="#P" gradientTransform="matrix(44,0,0,0,NaN,NaN)"><stop stop-color="#d79d2d" stop-opacity="1"/><stop offset="1" stop-color="#c1d72d" stop-opacity=".13"/></linearGradient></defs><style>.a{fill:none;stroke:url(#g1);stroke-width:4}.b{fill:#ffffe7}.c{fill:#674a00;stroke:#674a00;stroke-width:.4}.d{fill:#ffa2a2}</style><path class="a" d="m46.5 23h173"/><path class="b" d="m35.5 0c12.7 0 23 10.3 23 23 0 12.7-10.3 23-23 23-12.7 0-23-10.3-23-23 0-12.7 10.3-23 23-23z"/><path fill-rule="evenodd" class="c" d="m33.7 25.4l-2.7 6.4q-0.2 0.2-0.4 0.3-0.2 0.1-0.4 0-0.3-0.1-0.4-0.4 0-0.2 0-0.4l4.5-10.3q-1.2-0.2-2.9 0.7-1.4 0.8-2.6 1.8-0.1 0.2-0.4 0.2-0.2 0-0.4-0.2-0.2-0.2-0.2-0.4 0-0.3 0.2-0.5 1.3-1.1 2.8-1.9c2.1-1.2 3.9-1.2 5.2-0.1q0.5 0.4 0.9 0.8v0.1q0 0 0 0l-0.7 0.9q-0.1-0.1-0.1-0.1-0.4-0.4-0.7-0.7l-1.2 2.6 0.3 0.2zm3.2-3.9q0.1 0.1 0.3 0.3l-0.3-0.2zm0.3 0.3l3.6 2c-0.8-0.1-1.5-0.4-2.1-0.7-0.6-0.4-1-0.8-1.5-1.3zm4.3 2q0.1 0 0.3 0 0.1 0.1 0.1 0.2 0.1 0.1 0.2 0.2 0 0.1 0 0.2 0 0 0 0l-0.1-0.1q0 0 0-0.1-0.1-0.1-0.1-0.1-0.1-0.1-0.2-0.2-0.1 0-0.2 0-0.2 0-0.4 0l0.2 0.1-1.1 0.9c-0.8-0.1-1.5-0.4-2-0.7q-0.6-0.4-1.1-0.8l-0.2-1.7c1.1 1 2.1 2.1 4.2 2.2l-0.3-0.1q0.3 0 0.7 0zm0.6 0.6q0 0.3-0.1 0.4-0.2 0.2-0.5 0.2-0.2 0-0.4 0zm-7.7 0.1l1.7-2q0.5 0.4 1 0.9l0.4 3.5q0-0.1-0.1-0.2 0-0.1-0.2-0.2zm3.1 2.5l2.7-2.1q0.4 0.1 0.9 0.1zm0 0l-0.1-0.1q0.1 0 0.1 0.1zm3.8-3l0.1-0.1 0.5 0.4q0 0 0 0.1zm-4.4-2.4v0.1q0-0.1-0.1-0.1zm5.2 2.7h-0.1zm-4.6 2.6v4.6q0 0.2-0.2 0.4-0.1 0.2-0.4 0.2-0.2 0-0.4-0.2-0.2-0.2-0.2-0.4v-4.3zm-2.4-8.6c-0.5-0.5-0.8-1.2-0.8-1.9 0-0.5 0.2-1 0.5-1.4 0.2-0.4 0.6-0.7 1.1-0.9 0.5-0.2 1-0.3 1.5-0.2 0.5 0.1 1 0.4 1.3 0.7 0.4 0.4 0.6 0.8 0.7 1.3 0.1 0.5 0.1 1-0.1 1.5-0.2 0.5-0.5 0.9-1 1.2-0.4 0.3-0.9 0.4-1.4 0.4-0.7 0-1.3-0.3-1.8-0.7zm0.8-2.8c-0.2 0.2-0.4 0.6-0.4 0.9q0 0.4 0.3 0.8 0.2 0.3 0.6 0.5 0.4 0.1 0.8 0.1 0.4-0.1 0.7-0.4 0.2-0.3 0.3-0.7 0.1-0.4 0-0.8-0.2-0.4-0.5-0.6-0.4-0.2-0.8-0.2c-0.4 0-0.7 0.1-1 0.4zm-2.2 9.9l2.6 1.8m-2.6-1.8l2.6 1.8m5.8-2.9h-0.1m-4.5 2.6l-1.2 0.3"/><path class="d" d="m227.5 31c-4.4 0-8-3.6-8-8 0-4.4 3.6-8 8-8 4.4 0 8 3.6 8 8 0 4.4-3.6 8-8 8z"/></svg>